#!OML:ASF H:\Terrain\Patient Classification 1\Animal2\Wednesday\Animal2.ASF
:FULLY-SPECIFIED
:DEGREES
1154
root 22.9158 16.9447 10.8164 28.9921 68.8434 11.2406
lowerback 19.0411 1.06267 2.25273
upperback -8.82088 2.00769 -0.972487
thorax -20.7687 0.478183 -3.13597
lowerneck 4.84689 5.32529 15.3853
upperneck -36.1133 5.40054 -22.2467
head -11.0076 3.75462 -12.2985
rclavicle -5.26779e-015 -2.22639e-014
rhumerus 44.7683 -2.48207 -12.2499
rradius 58.2738
rwrist -35.2052
rhand -26.3811 -7.42611
rfingers 7.12502
rthumb 0.177669 -37.4058
lclavicle -5.26779e-015 -2.22639e-014
lhumerus 39.5756 40.5166 1.86258
lradius 55.8205
lwrist 76.5935
lhand -35.3711 32.1003
lfingers 7.12502
lthumb -8.50287 61.9091
rfemur -47.1731 -4.28837 14.0734
rtibia 57.2189
rfoot -26.9318 -5.87426
rtoes 23.0288
lfemur -51.0288 1.31459 -13.0232
ltibia 52.5171
lfoot -13.3646 1.173
ltoes -8.58988
1155
root 22.9568 16.9807 10.8354 29.1232 69.2096 11.139
lowerback 18.9331 0.940744 2.12265
upperback -8.76392 1.84399 -0.725482
thorax -20.6499 0.454264 -2.71471
lowerneck 4.86206 5.43692 15.0551
upperneck -36.3094 5.53332 -22.1772
head -11.0755 3.85401 -12.2375
rclavicle 1.0635e-014 3.57812e-014
rhumerus 45.3048 -2.31446 -12.2696
rradius 58.2008
rwrist -35.2155
rhand -27.4426 -8.88845
rfingers 7.12502
rthumb -0.847539 -38.8665
lclavicle 1.0635e-014 3.57812e-014
lhumerus 38.5443 39.5744 1.14174
lradius 55.8833
lwrist 76.9694
lhand -35.6203 32.1675
lfingers 7.12502
lthumb -8.74344 61.9664
rfemur -46.8255 -4.35663 14.2134
rtibia 56.646
rfoot -26.9044 -5.88412
rtoes 23.2114
lfemur -51.3254 1.53175 -13.2022
ltibia 51.1877
lfoot -12.233 1.50567
ltoes -8.63359
1156
root 22.9992 17.0174 10.8564 29.276 69.574 10.9725
lowerback 18.8066 0.795928 2.18513
upperback -8.77344 1.65892 -0.728721
thorax -20.5929 0.368382 -2.68429
lowerneck 4.78941 5.50188 14.9632
upperneck -36.4264 5.68061 -21.8969
head -11.0959 3.90028 -12.1107
rclavicle 1.04362e-014 -3.73715e-014
rhumerus 45.5637 -2.14534 -12.6878
rradius 58.0282
rwrist -34.9639
rhand -26.6913 -7.85823
rfingers 7.12502
rthumb -0.121958 -37.8379
lclavicle 1.04362e-014 -3.73715e-014
lhumerus 38.0272 38.5921 0.584077
lradius 55.8203
lwrist 76.9689
lhand -35.3252 31.3205
lfingers 7.12502
lthumb -8.45865 61.1311
rfemur -46.5631 -4.35482 14.3971
rtibia 56.0131
rfoot -26.8356 -6.14253
rtoes 23.4467
lfemur -51.6757 1.81106 -13.4305
ltibia 49.8294
lfoot -11.0463 2.5081
ltoes -13.5548
1157
root 23.0438 17.0604 10.874 29.3585 69.926 10.7356
lowerback 18.5576 0.745928 2.23788
upperback -8.64832 1.60036 -0.692263
thorax -20.2777 0.348566 -2.64018
lowerneck 4.31061 5.55723 14.573
upperneck -36.4693 5.76232 -21.5045
head -11.0398 3.94016 -11.8364
rclavicle 1.18277e-014 2.38542e-015
rhumerus 45.832 -2.34114 -12.8934
rradius 57.8205
rwrist -35.0056
rhand -25.7129 -6.44428
rfingers 7.12502
rthumb 0.823019 -36.4224
lclavicle 1.18277e-014 2.38542e-015
lhumerus 37.8605 37.8389 0.520458
lradius 55.6012
lwrist 76.9479
lhand -34.6493 30.0705
lfingers 7.12502
lthumb -7.80628 59.9064
rfemur -46.2922 -4.33129 14.595
rtibia 55.3121
rfoot -26.7379 -6.52668
rtoes 23.7767
lfemur -51.9401 1.99883 -13.5496
ltibia 48.4734
lfoot -10.0126 2.7582
ltoes -9.92859
1158
root 23.0919 17.1118 10.8883 29.3559 70.2257 10.4971
lowerback 18.4802 0.85794 2.13759
upperback -8.62396 1.75725 -0.52037
thorax -20.1965 0.448474 -2.43989
lowerneck 4.68208 5.45941 14.9158
upperneck -36.8523 5.53271 -22.2754
head -11.2603 3.89466 -12.3354
rclavicle 7.51406e-014 5.56597e-015
rhumerus 45.8883 -2.37637 -12.4405
rradius 57.6993
rwrist -35.0711
rhand -25.7064 -6.09447
rfingers 7.12502
rthumb 0.829272 -36.0726
lclavicle 7.51406e-014 5.56597e-015
lhumerus 37.7223 36.7017 0.82391
lradius 55.5525
lwrist 77.1684
lhand -34.3725 29.7508
lfingers 7.12502
lthumb -7.53917 59.5964
rfemur -45.8538 -4.29662 14.7602
rtibia 54.5296
rfoot -26.5766 -7.10037
rtoes 22.6854
lfemur -52.0583 2.21798 -13.7382
ltibia 47.1728
lfoot -8.86898 3.21739
ltoes -10.35
1159
root 23.1432 17.1669 10.9009 29.8403 70.4171 10.8082
lowerback 18.6146 0.955423 1.9387
upperback -8.74738 1.85467 -0.475463
thorax -20.443 0.515707 -2.31879
lowerneck 4.83509 5.36517 14.7258
upperneck -36.8497 5.36171 -22.3703
head -11.3377 3.85753 -12.3576
rclavicle -1.49089e-015 -4.77083e-015
rhumerus 45.8346 -2.25897 -12.0189
rradius 57.6609
rwrist -34.9786
rhand -25.4786 -6.15454
rfingers 7.12502
rthumb 1.04932 -36.1317
lclavicle -1.49089e-015 -4.77083e-015
lhumerus 37.5373 35.2571 0.999893
lradius 55.6154
lwrist 77.2803
lhand -34.2006 30.3796
lfingers 7.12502
lthumb -7.37322 60.2311
rfemur -45.2939 -4.31059 14.6441
rtibia 53.7118
rfoot -26.6849 -7.09109
rtoes 22.6085
lfemur -52.0762 2.19131 -14.0339
ltibia 45.9134
lfoot -7.97169 3.62446
ltoes -9.77313
1160
root 23.1943 17.2128 10.9124 30.1251 70.7362 10.8867
lowerback 18.7079 0.844611 1.98379
upperback -8.8291 1.72222 -0.465457
thorax -20.614 0.449682 -2.29161
lowerneck 3.87649 5.57694 13.7803
upperneck -36.0306 5.67305 -21.3869
head -10.8371 3.99289 -11.534
rclavicle 3.38928e-014 1.19271e-014
rhumerus 46.1223 -2.22989 -12.0055
rradius 57.5942
rwrist -34.8104
rhand -25.2053 -6.1054
rfingers 7.12502
rthumb 1.31332 -36.0811
lclavicle 3.38928e-014 1.19271e-014
lhumerus 37.0468 33.871 0.562196
lradius 55.7625
lwrist 77.4811
lhand -33.9507 31.1358
lfingers 7.12502
lthumb -7.13199 60.9956
rfemur -44.7377 -4.40755 14.6861
rtibia 52.8923
rfoot -26.8038 -7.39124
rtoes 21.5828
lfemur -52.1486 2.02616 -14.1127
ltibia 44.6902
lfoot -7.37513 4.08982
ltoes -6.69814
1161
root 23.2464 17.2548 10.9253 30.0991 71.1283 10.556
lowerback 18.5166 0.801781 2.00488
upperback -8.82045 1.67393 -0.419737
thorax -20.4863 0.434547 -2.22883
lowerneck 4.59744 5.45095 14.5963
upperneck -36.819 5.48142 -22.25
head -11.2581 3.91801 -12.2532
rclavicle 7.55382e-015 1.59028e-014
rhumerus 46.3244 -2.46135 -11.9067
rradius 57.4746
rwrist -34.7679
rhand -25.2221 -5.76903
rfingers 7.12502
rthumb 1.29704 -35.7448
lclavicle 7.55382e-015 1.59028e-014
lhumerus 36.8434 32.5537 0.256662
lradius 55.8869
lwrist 77.9557
lhand -34.0072 31.221
lfingers 7.12502
lthumb -7.18656 61.079
rfemur -44.3026 -4.47036 14.9414
rtibia 52.0872
rfoot -26.4722 -7.89111
rtoes 20.1516
lfemur -52.282 2.0035 -14.0983
ltibia 43.4759
lfoot -6.52638 4.94909
ltoes -9.61831
1162
root 23.3053 17.3032 10.9416 30.4721 71.3603 10.5963
lowerback 18.286 0.737133 1.75601
upperback -8.51374 1.53161 -0.279611
thorax -20.5373 0.420855 -1.88647
lowerneck 3.86049 5.44656 13.2345
upperneck -36.7038 5.52078 -20.9888
head -11.1985 3.95187 -11.3749
rclavicle -1.15295e-014 1.27222e-014
rhumerus 46.9963 -2.84402 -11.865
rradius 57.2454
rwrist -34.6479
rhand -25.248 -5.5162
rfingers 7.12502
rthumb 1.272 -35.4922
lclavicle -1.15295e-014 1.27222e-014
lhumerus 36.4112 31.4458 0.00701047
lradius 55.8796
lwrist 78.2554
lhand -33.9379 30.7599
lfingers 7.12502
lthumb -7.11965 60.6202
rfemur -43.9535 -4.44652 14.9716
rtibia 51.3071
rfoot -26.1828 -7.57753
rtoes 21.6127
lfemur -52.3567 1.98196 -14.1924
ltibia 42.2652
lfoot -5.51769 5.5989
ltoes -12.0407
1163
root 23.3696 17.35 10.9541 30.7742 71.5855 10.572
lowerback 18.0632 0.805805 1.62248
upperback -8.60664 1.58801 -0.300237
thorax -20.5108 0.463511 -1.85176
lowerneck 5.08633 5.33817 14.6773
upperneck -37.5362 5.30443 -22.6223
head -11.6799 3.883 -12.6103
rclavicle 3.67752e-015 -1.66979e-014
rhumerus 47.0614 -3.09613 -11.701
rradius 57.093
rwrist -34.5249
rhand -25.0923 -5.49216
rfingers 7.12502
rthumb 1.42244 -35.4672
lclavicle 3.67752e-015 -1.66979e-014
lhumerus 36.539 29.9718 0.115933
lradius 56.0771
lwrist 78.5707
lhand -33.9196 30.7687
lfingers 7.12502
lthumb -7.10198 60.6295
rfemur -43.5763 -4.37783 14.9408
rtibia 50.5187
rfoot -25.9929 -7.53453
rtoes 21.6192
lfemur -52.4214 1.8524 -14.2187
ltibia 41.0947
lfoot -4.55741 6.07134
ltoes -13.0643
1164
root 23.4314 17.3926 10.9593 30.7686 71.8922 10.2895
lowerback 17.9679 0.753941 1.70098
upperback -8.6981 1.52247 -0.401844
thorax -20.5671 0.413499 -1.9951
lowerneck 5.02213 5.27043 14.8652
upperneck -37.4644 5.27873 -22.436
head -11.6483 3.82111 -12.5459
rclavicle -3.37934e-014 -8.74653e-015
rhumerus 47.2324 -3.37799 -11.7336
rradius 56.9241
rwrist -34.489
rhand -25.0096 -5.55763
rfingers 7.12502
rthumb 1.50228 -35.5321
lclavicle -3.37934e-014 -8.74653e-015
lhumerus 36.3759 28.3306 -0.484544
lradius 56.4807
lwrist 79.1651
lhand -34.2468 30.9999
lfingers 7.12502
lthumb -7.41775 60.8499
rfemur -43.1153 -4.36656 15.0325
rtibia 49.7292
rfoot -25.7735 -7.93408
rtoes 20.0612
lfemur -52.4083 1.66545 -14.1195
ltibia 39.9565
lfoot -3.55504 6.32885
ltoes -13.9052
